<svg xmlns="http://www.w3.org/2000/svg" viewBox="0 0 64 64" width="64" height="64">
  <circle cx="32" cy="32" r="30" fill="#ffffff" stroke="#0A1A2F" stroke-width="2"/>
  <polygon points="32,18 41,25 37,36 27,36 23,25" fill="#0A1A2F"/>
  <polygon points="32,18 23,25 14,20 20,11 30,11" fill="none" stroke="#0A1A2F" stroke-width="2"/>
  <polygon points="32,18 41,25 50,20 44,11 34,11" fill="none" stroke="#0A1A2F" stroke-width="2"/>
  <polygon points="27,36 23,25 14,20 12,31 19,40" fill="none" stroke="#0A1A2F" stroke-width="2"/>
  <polygon points="37,36 41,25 50,20 52,31 45,40" fill="none" stroke="#0A1A2F" stroke-width="2"/>
  <polygon points="27,36 37,36 45,40 38,49 26,49 19,40" fill="none" stroke="#0A1A2F" stroke-width="2"/>
</svg>
