<?xml version="1.0" encoding="UTF-8"?>
<svg version="1.1" xmlns="http://www.w3.org/2000/svg" width="900" height="900">
<path d="M0 0 C297 0 594 0 900 0 C900 297 900 594 900 900 C603 900 306 900 0 900 C0 603 0 306 0 0 Z " fill="#FEFEFE" transform="translate(0,0)"/>
<path d="M0 0 C0 4.33268774 -2.32617362 7.18298614 -4.5625 10.75 C-5.05282715 11.54148438 -5.5431543 12.33296875 -6.04833984 13.1484375 C-11.87621255 22.49908827 -17.9243112 31.70797102 -23.97460938 40.91552734 C-26.73888869 45.12525551 -29.49333767 49.34137869 -32.24804688 53.55737305 C-34.38845322 56.83308905 -36.52997871 60.10807057 -38.671875 63.3828125 C-39.38537109 64.47368164 -40.09886719 65.56455078 -40.83398438 66.68847656 C-42.27799479 68.89615885 -43.72200521 71.10384115 -45.16601562 73.31152344 C-54.50360105 87.58782275 -63.83277875 101.86953932 -73.1484375 116.16015625 C-75.03589555 119.05505499 -76.92408978 121.9494723 -78.8125 124.84375 C-85.82625681 135.5938742 -92.83287776 146.34856381 -99.82421875 157.11328125 C-101.94850867 160.38368144 -104.07636286 163.6517208 -106.20703125 166.91796875 C-112.98129696 177.30866437 -119.67591702 187.74705588 -126.32421875 198.21875 C-130.24106628 204.38574649 -134.1829776 210.53657766 -138.125 216.6875 C-144.27372378 226.28892355 -150.40403451 235.90078271 -156.45996094 245.56103516 C-158.17922343 248.28383673 -159.92165402 250.99117639 -161.6640625 253.69921875 C-162.88058087 255.61174226 -164.09673427 257.52449796 -165.3125 259.4375 C-165.89475342 260.33243164 -166.47700684 261.22736328 -167.0769043 262.14941406 C-167.60453369 262.98569336 -168.13216309 263.82197266 -168.67578125 264.68359375 C-169.14927002 265.42150146 -169.62275879 266.15940918 -170.1105957 266.91967773 C-171.17716251 268.94568105 -171.17716251 268.94568105 -170.77758789 271.08032227 C-169.48004336 274.28364806 -167.27492832 276.8328012 -165.125 279.5 C-164.63539795 280.11512451 -164.1457959 280.73024902 -163.64135742 281.36401367 C-159.48784104 286.52223109 -155.09179904 291.42161931 -150.5625 296.25 C-148.25457931 298.72679294 -146.02673791 301.25228742 -143.8125 303.8125 C-140.1523119 307.93021161 -136.27242555 311.52683773 -132 315 C-131.07703125 315.76054688 -130.1540625 316.52109375 -129.203125 317.3046875 C-106.77059981 335.41364539 -80.99448753 345.68812572 -51.9375 345.5 C-51.21966339 345.49856995 -50.50182678 345.49713989 -49.76223755 345.4956665 C-37.30860788 345.43455244 -25.84466409 343.95256962 -14 340 C-13.28650391 339.77006348 -12.57300781 339.54012695 -11.83789062 339.30322266 C-1.40705805 335.88196768 8.31706257 331.12811978 18 326 C18.72477539 325.62359375 19.44955078 325.2471875 20.19628906 324.859375 C41.43185731 313.79438069 58.00870194 299.01911398 74.875 282.25 C75.67204346 281.45779053 76.46908691 280.66558105 77.2902832 279.84936523 C82.06591185 275.05970683 86.5899672 270.12578983 91 265 C92.45445517 263.39231627 93.91220895 261.78760285 95.375 260.1875 C99.25033743 255.89391368 102.9222131 251.46911998 106.55859375 246.97265625 C109.27719841 243.66248321 112.07091855 240.42511457 114.875 237.1875 C119.83925008 231.43739428 124.57563891 225.54190056 129.234375 219.54296875 C131.54799661 216.56561669 133.90637909 213.62746546 136.27807617 210.69628906 C143.51935825 201.73626844 150.4181713 192.53087983 157.29492188 183.28955078 C159.6676054 180.10355047 162.05193025 176.92635554 164.4375 173.75 C165.48744141 172.35007812 165.48744141 172.35007812 166.55859375 170.921875 C167.03425781 170.28765625 167.50992188 169.6534375 168 169 C168.66625977 170.79467773 168.66625977 170.79467773 169 173 C167.94116211 174.66040039 167.94116211 174.66040039 166.33984375 176.28515625 C163.13618013 179.76186462 160.8621244 183.32557886 158.5625 187.4375 C154.4865268 194.53765882 150.23276749 201.50689754 145.875 208.4375 C134.79189235 226.08879241 123.89813065 243.85477703 113.07788086 261.66821289 C109.2495063 267.96488874 105.38641853 274.23900564 101.5 280.5 C94.59614507 291.62392533 87.79514323 302.80944321 81 314 C78.70933653 317.77144395 76.41768529 321.54228478 74.125 325.3125 C73.54911133 326.25988037 72.97322266 327.20726074 72.37988281 328.18334961 C69.34691375 333.16662341 66.29978781 338.14058565 63.23046875 343.1015625 C53.74728126 358.4317423 44.47793165 373.87626611 35.31806946 389.40136719 C33.00223153 393.32139489 30.65973154 397.22368233 28.29296875 401.11328125 C7.20289929 435.8805891 -3.50022922 470.66834759 -9 511 C-32.76 511 -56.52 511 -81 511 C-82.30326687 506.43856596 -83.52887315 501.94089681 -84.62890625 497.3359375 C-89.07452076 478.97700238 -94.10258857 460.95588328 -100 443 C-100.44593506 441.63343262 -100.44593506 441.63343262 -100.90087891 440.23925781 C-105.85056424 425.2026044 -111.88572027 410.59438628 -118 396 C-118.34595215 395.17387207 -118.6919043 394.34774414 -119.04833984 393.49658203 C-142.88743442 332.77301158 -142.88743442 332.77301158 -183 286 C-183.1549292 286.82479858 -183.1549292 286.82479858 -183.31298828 287.66625977 C-184.15564467 290.52871622 -185.47172892 292.77083122 -186.9921875 295.33984375 C-187.60940674 296.39171875 -188.22662598 297.44359375 -188.86254883 298.52734375 C-189.52665771 299.65269531 -190.1907666 300.77804687 -190.875 301.9375 C-216.10549668 345.23055936 -229.38637944 388.18613457 -235 438 C-235.11859375 438.98274902 -235.2371875 439.96549805 -235.359375 440.97802734 C-238.10266211 464.25106275 -237 487.5618688 -237 511 C-271.98 511 -306.96 511 -343 511 C-343.375 484.375 -343.375 484.375 -343.47802734 476.12255859 C-343.75719118 457.1367044 -344.87307226 438.39123248 -347.875 419.625 C-348.0500708 418.52687988 -348.2251416 417.42875977 -348.40551758 416.29736328 C-355.14648143 375.22197958 -375.66460219 336.98430767 -394 300 C-394.75034011 298.4840567 -395.50066554 296.96810613 -396.25097656 295.45214844 C-403.87506351 280.06084077 -411.52117454 264.6803203 -419.63916016 249.54199219 C-421.2603466 246.51368338 -422.8700599 243.47936601 -424.48046875 240.4453125 C-430.97290989 228.23379499 -437.58211673 216.10423214 -444.43676758 204.09082031 C-448.17198919 197.52494255 -451.72645669 190.88429539 -455.20361328 184.17895508 C-458.38739377 178.07533115 -461.76651513 172.09823789 -465.1875 166.125 C-485.19813562 130.98877377 -501.8223505 94.21570069 -517.87748718 57.14434814 C-519.66304216 53.02931674 -521.47881412 48.93130241 -523.34375 44.8515625 C-523.7210022 44.02136597 -524.09825439 43.19116943 -524.48693848 42.33581543 C-525.21003451 40.74854506 -525.93950749 39.16416013 -526.67614746 37.58312988 C-527.50993454 35.7478333 -528.26327389 33.87636592 -529 32 C-528.67 31.34 -528.34 30.68 -528 30 C-527.4738208 30.72195557 -527.4738208 30.72195557 -526.93701172 31.45849609 C-505.27121131 61.13930916 -482.43784384 89.54933373 -456.52966309 115.64556885 C-455.48540045 116.69787782 -454.44262206 117.75166221 -453.40148926 118.80706787 C-446.60904719 125.68270623 -439.61241463 132.02044647 -432 138 C-431.29093506 138.56831543 -430.58187012 139.13663086 -429.85131836 139.72216797 C-414.43102952 152.03934989 -398.04554096 162.92108615 -380 171 C-379.24138672 171.34015137 -378.48277344 171.68030273 -377.70117188 172.03076172 C-365.14648962 177.56104316 -352.4779269 181.44133954 -339 184 C-338.03489502 184.18618896 -337.06979004 184.37237793 -336.07543945 184.56420898 C-327.06355556 186.13717964 -318.17767388 186.35749707 -309.0625 186.3125 C-308.29443024 186.31067719 -307.52636047 186.30885437 -306.73501587 186.30697632 C-293.95743459 186.25609867 -281.56248553 185.47911969 -269 183 C-268.11666992 182.82839355 -267.23333984 182.65678711 -266.32324219 182.47998047 C-220.04065979 173.24162697 -176.5972925 152.95129186 -138 126 C-137.3188916 125.52852539 -136.6377832 125.05705078 -135.93603516 124.57128906 C-112.8467191 108.57476944 -90.70792742 90.99770759 -70.11499023 71.87963867 C-68.21111389 70.11434891 -66.29646151 68.36519653 -64.36865234 66.62573242 C-56.2682209 59.30684503 -48.51440108 51.66801573 -40.80737305 43.93774414 C-38.67675366 41.80172643 -36.54078777 39.67115882 -34.40429688 37.54101562 C-33.0231165 36.15917493 -31.64224611 34.77702433 -30.26171875 33.39453125 C-29.63553146 32.77036819 -29.00934418 32.14620514 -28.36418152 31.50312805 C-24.60008634 27.71930395 -21.0212743 23.81939302 -17.53573608 19.77728271 C-15.38384119 17.2869293 -13.1612193 14.86370431 -10.9375 12.4375 C-7.21217822 8.35386482 -3.56612119 4.22303826 0 0 Z " fill="#E89245" transform="translate(627,229)"/>
<path d="M0 0 C0.66625977 1.79467773 0.66625977 1.79467773 1 4 C-0.05883789 5.66040039 -0.05883789 5.66040039 -1.66015625 7.28515625 C-4.86381987 10.76186462 -7.1378756 14.32557886 -9.4375 18.4375 C-13.5134732 25.53765882 -17.76723251 32.50689754 -22.125 39.4375 C-33.20810765 57.08879241 -44.10186935 74.85477703 -54.92211914 92.66821289 C-58.7504937 98.96488874 -62.61358147 105.23900564 -66.5 111.5 C-73.40385493 122.62392533 -80.20485677 133.80944321 -87 145 C-89.29066347 148.77144395 -91.58231471 152.54228478 -93.875 156.3125 C-94.45088867 157.25988037 -95.02677734 158.20726074 -95.62011719 159.18334961 C-98.65308625 164.16662341 -101.70021219 169.14058565 -104.76953125 174.1015625 C-114.25271874 189.4317423 -123.52206835 204.87626611 -132.68193054 220.40136719 C-134.99776847 224.32139489 -137.34026846 228.22368233 -139.70703125 232.11328125 C-160.79710071 266.8805891 -171.50022922 301.66834759 -177 342 C-200.76 342 -224.52 342 -249 342 C-250.30326687 337.43856596 -251.52887315 332.94089681 -252.62890625 328.3359375 C-257.07452076 309.97700238 -262.10258857 291.95588328 -268 274 C-268.29729004 273.08895508 -268.59458008 272.17791016 -268.90087891 271.23925781 C-273.85056424 256.2026044 -279.88572027 241.59438628 -286 227 C-286.34595215 226.17387207 -286.6919043 225.34774414 -287.04833984 224.49658203 C-302.37566381 188.1333289 -322.32244137 150.78769123 -347.62109375 120.375 C-349 118 -349 118 -348.9453125 115.55078125 C-347.79826759 112.45565593 -346.26029744 109.93826704 -344.4375 107.1875 C-343.79683594 106.21167969 -343.15617187 105.23585938 -342.49609375 104.23046875 C-341.75552734 103.12638672 -341.75552734 103.12638672 -341 102 C-337.30196457 105.59790811 -333.92543855 109.34963921 -330.625 113.3125 C-329.65019371 114.47303785 -328.67493463 115.63319553 -327.69921875 116.79296875 C-327.23306152 117.34774902 -326.7669043 117.9025293 -326.28662109 118.47412109 C-323.57269194 121.69272777 -320.79915191 124.85549818 -318 128 C-317.21882813 128.88558594 -316.43765625 129.77117187 -315.6328125 130.68359375 C-310.70605451 136.2018622 -305.75710896 141.35391207 -300 146 C-298.61941406 147.13695312 -298.61941406 147.13695312 -297.2109375 148.296875 C-274.78123532 166.41317292 -248.99560076 176.68813293 -219.9375 176.5 C-219.21966339 176.49856995 -218.50182678 176.49713989 -217.76223755 176.4956665 C-205.30860788 176.43455244 -193.84466409 174.95256962 -182 171 C-181.28650391 170.77006348 -180.57300781 170.54012695 -179.83789062 170.30322266 C-169.40705805 166.88196768 -159.68293743 162.12811978 -150 157 C-149.27522461 156.62359375 -148.55044922 156.2471875 -147.80371094 155.859375 C-126.56814269 144.79438069 -109.99129806 130.01911398 -93.125 113.25 C-92.32795654 112.45779053 -91.53091309 111.66558105 -90.7097168 110.84936523 C-85.93408815 106.05970683 -81.4100328 101.12578983 -77 96 C-75.54554483 94.39231627 -74.08779105 92.78760285 -72.625 91.1875 C-68.74966257 86.89391368 -65.0777869 82.46911998 -61.44140625 77.97265625 C-58.72280159 74.66248321 -55.92908145 71.42511457 -53.125 68.1875 C-48.16074992 62.43739428 -43.42436109 56.54190056 -38.765625 50.54296875 C-36.45200339 47.56561669 -34.09362091 44.62746546 -31.72192383 41.69628906 C-24.48064175 32.73626844 -17.5818287 23.53087983 -10.70507812 14.28955078 C-8.3323946 11.10355047 -5.94806975 7.92635554 -3.5625 4.75 C-2.51255859 3.35007812 -2.51255859 3.35007812 -1.44140625 1.921875 C-0.96574219 1.28765625 -0.49007813 0.6534375 0 0 Z " fill="#D54655" transform="translate(795,398)"/>
<path d="M0 0 C2.44201975 1.89771414 4.74928884 3.86700379 7.03125 5.953125 C7.6396875 6.48164063 8.248125 7.01015625 8.875 7.5546875 C30.61284967 27.61279424 41.62589887 60.59824837 43.21875 89.3359375 C43.69160118 114.81079504 38.91263092 143.54991176 20.78125 162.640625 C7.13446673 175.71784302 -8.92297829 178.13040522 -27.09375 178.140625 C-28.24746094 178.15287109 -29.40117187 178.16511719 -30.58984375 178.17773438 C-31.70746094 178.17966797 -32.82507813 178.18160156 -33.9765625 178.18359375 C-34.98348145 178.18770264 -35.99040039 178.19181152 -37.02783203 178.19604492 C-40.26342598 177.92878475 -42.93836688 177.09071628 -45.96875 175.953125 C-45.9780957 174.98713379 -45.98744141 174.02114258 -45.99707031 173.02587891 C-45.96504804 147.66276623 -45.96504804 147.66276623 -50.96875 122.953125 C-51.3296875 121.7878125 -51.690625 120.6225 -52.0625 119.421875 C-57.47346087 103.77396113 -67.93247368 89.99607393 -82.84375 82.515625 C-95.20352693 76.62017268 -107.23530174 73.95303377 -120.84375 73.390625 C-121.81828125 73.34744141 -122.7928125 73.30425781 -123.796875 73.25976562 C-126.18737802 73.15430226 -128.57797444 73.05218325 -130.96875 72.953125 C-127.08018762 50.03234428 -120.05487249 25.53411948 -103.96875 7.953125 C-103.13472656 7.03917969 -102.30070312 6.12523437 -101.44140625 5.18359375 C-75.0174787 -22.9015353 -30.35562781 -20.92940654 0 0 Z " fill="#E89245" transform="translate(375.96875,175.046875)"/>
<path d="M0 0 C14.03960424 8.89675456 23.99897294 22.1432187 27.875 38.5625 C30.3429441 54.52701338 27.85514805 71.19516525 18.5 84.625 C7.83979243 98.26202025 -5.20594524 107.15170284 -22.5 109.625 C-39.10130622 110.99040332 -54.68953419 107.21564802 -67.6875 96.3125 C-68.97790677 95.10389816 -70.2485422 93.87388807 -71.5 92.625 C-72.17933594 91.95726562 -72.85867188 91.28953125 -73.55859375 90.6015625 C-84.97030953 78.65054068 -89.05559185 64.02470471 -88.98999023 47.84350586 C-88.58243679 35.30157843 -83.95697381 24.68135466 -76.5 14.625 C-76.00113281 13.91988281 -75.50226562 13.21476562 -74.98828125 12.48828125 C-57.5472515 -9.87313976 -23.71721775 -13.25460373 0 0 Z " fill="#D54655" transform="translate(604.5,430.375)"/>
<path d="M0 0 C0.85464844 0.44730469 1.70929688 0.89460938 2.58984375 1.35546875 C14.11609582 7.82056954 20.88696467 16.65887388 24.875 29.3125 C27.60528689 40.5890695 26.89347601 52.67780952 21.375 62.984375 C16.2386837 70.51374775 8.90353615 75.30610489 0 77 C-13.80124508 78.45790092 -25.14002591 76.5506864 -36.44921875 68.109375 C-45.48078609 60.64069757 -52.24104932 53.27685203 -56 42 C-56.67073183 32.92862683 -56.4775382 25.10420466 -52 17 C-51.57589844 16.22011719 -51.15179688 15.44023437 -50.71484375 14.63671875 C-45.47125936 5.94609838 -36.63866355 -1.08067307 -26.68359375 -3.58203125 C-17.115949 -5.07218844 -8.57812065 -4.56463422 0 0 Z " fill="#E89246" transform="translate(282,279)"/>
<path d="M0 0 C2.68596763 2.59049571 5.01588516 5.21192529 7.20703125 8.23046875 C7.79419922 9.03419922 8.38136719 9.83792969 8.98632812 10.66601562 C9.58896484 11.49810547 10.19160156 12.33019531 10.8125 13.1875 C15.43600123 19.54544445 20.13637441 25.82318621 25 32 C24.01 32 23.02 32 22 32 C21.34 31.34 20.68 30.68 20 30 C17.4345406 32.5654594 17.45953913 34.47686668 17 38 C14.35572754 34.78780716 12.77890654 31.51540033 11.15234375 27.6953125 C10.8949794 27.09371307 10.63761505 26.49211365 10.37245178 25.87228394 C9.83126082 24.60426397 9.29268696 23.33512418 8.7565918 22.06494141 C7.94203239 20.13573454 7.11921233 18.21022252 6.29492188 16.28515625 C4.0054624 10.90844348 1.78615989 5.57012991 0 0 Z " fill="#E2944E" transform="translate(98,259)"/>
<path d="M0 0 C0.66455078 1.79760742 0.66455078 1.79760742 1 4 C-0.04345703 5.6340332 -0.04345703 5.6340332 -1.6328125 7.23828125 C-5.03841394 10.92981172 -7.42715012 14.82161842 -9.875 19.1875 C-13.97382308 26.33579112 -18.3190645 33.21395105 -23 40 C-23.495 38.515 -23.495 38.515 -24 37 C-24.99 36.67 -25.98 36.34 -27 36 C-18 24 -9 12 0 0 Z " fill="#C64A58" transform="translate(795,398)"/>
<path d="M0 0 C0.33 0 0.66 0 1 0 C1.02895225 3.29164829 1.0467823 6.58326399 1.0625 9.875 C1.07087891 10.81214844 1.07925781 11.74929688 1.08789062 12.71484375 C1.09111328 13.61074219 1.09433594 14.50664063 1.09765625 15.4296875 C1.10289307 16.25710449 1.10812988 17.08452148 1.11352539 17.93701172 C1 20 1 20 0 22 C-0.11982257 23.87844908 -0.17729161 25.76100831 -0.20532227 27.64306641 C-0.22526749 28.82413971 -0.24521271 30.00521301 -0.26576233 31.22207642 C-0.28247482 32.50230682 -0.29918732 33.78253723 -0.31640625 35.1015625 C-0.3475779 37.06166763 -0.3475779 37.06166763 -0.37937927 39.06137085 C-0.43459294 42.536689 -0.48400525 46.01206653 -0.53222656 49.48748779 C-0.58244677 53.033379 -0.63813012 56.5791839 -0.69335938 60.125 C-0.80093228 67.0832585 -0.90237917 74.04159496 -1 81 C-1.33 81 -1.66 81 -2 81 C-3.28730807 72.0303696 -3.23867071 63.04175682 -3.25 54 C-3.25233643 53.1522702 -3.25467285 52.30454041 -3.25708008 51.43112183 C-3.2749095 34.16109679 -1.9594269 17.15019664 0 0 Z " fill="#FCE5C9" transform="translate(392,659)"/>
<path d="M0 0 C0 3.35657402 -0.58157642 4.32560902 -2.30078125 7.125 C-2.78353516 7.91390625 -3.26628906 8.7028125 -3.76367188 9.515625 C-4.27478516 10.33546875 -4.78589844 11.1553125 -5.3125 12 C-5.81201172 12.81984375 -6.31152344 13.6396875 -6.82617188 14.484375 C-8.99373244 17.99840696 -10.96501967 21.168168 -14 24 C-14.66 23.67 -15.32 23.34 -16 23 C-18.01927511 23.60578253 -20.02253397 24.26919734 -22 25 C-17.58954096 19.77708798 -13.02336465 14.71592051 -8.4140625 9.66796875 C-5.54458218 6.49668225 -2.75913152 3.26739259 0 0 Z " fill="#D8985C" transform="translate(627,229)"/>
<path d="M0 0 C0.74609375 1.609375 0.74609375 1.609375 1 4 C-0.65234375 7.015625 -0.65234375 7.015625 -2.9375 10.25 C-3.68902344 11.32765625 -4.44054687 12.4053125 -5.21484375 13.515625 C-5.80394531 14.33546875 -6.39304687 15.1553125 -7 16 C-7.66 14.68 -8.32 13.36 -9 12 C-9.66 12 -10.32 12 -11 12 C-11.7425 13.2375 -11.7425 13.2375 -12.5 14.5 C-13.2425 15.7375 -13.2425 15.7375 -14 17 C-14.66 17 -15.32 17 -16 17 C-14.53081089 12.55116331 -12.08838544 9.24269856 -9.125 5.6875 C-8.69058594 5.13771484 -8.25617187 4.58792969 -7.80859375 4.02148438 C-4.48150233 0 -4.48150233 0 0 0 Z " fill="#CB4A59" transform="translate(771,435)"/>
<path d="M0 0 C2.64 0 5.28 0 8 0 C0.25488922 5.16340719 -10.46450527 4.31142381 -19.4375 4.25 C-20.59443359 4.25773437 -21.75136719 4.26546875 -22.94335938 4.2734375 C-24.05388672 4.27085937 -25.16441406 4.26828125 -26.30859375 4.265625 C-27.30689209 4.26336914 -28.30519043 4.26111328 -29.33374023 4.25878906 C-32 4 -32 4 -36 2 C-24.12 2 -12.24 2 0 2 C0 1.34 0 0.68 0 0 Z " fill="#DFA471" transform="translate(368,349)"/>
<path d="M0 0 C0.33 0 0.66 0 1 0 C1.1799928 5.21979128 0.97094808 9.07262981 -1 14 C-1.66 14 -2.32 14 -3 14 C-2.979375 15.299375 -2.95875 16.59875 -2.9375 17.9375 C-2.91600546 19.29165633 -2.92851801 20.64756083 -3 22 C-3.33 22.33 -3.66 22.66 -4 23 C-4.20604085 24.32781878 -4.3662959 25.66295895 -4.5 27 C-4.88888889 30.88888889 -4.88888889 30.88888889 -6 32 C-6.2165625 33.7325 -6.2165625 33.7325 -6.4375 35.5 C-6.623125 36.655 -6.80875 37.81 -7 39 C-7.99 39.495 -7.99 39.495 -9 40 C-8.49346133 33.1242404 -7.37612907 26.66295878 -5.625 20 C-5.40239502 19.13149414 -5.17979004 18.26298828 -4.95043945 17.36816406 C-3.44133196 11.53316739 -1.81973618 5.74653531 0 0 Z " fill="#FDEDD5" transform="translate(406,592)"/>
<path d="M0 0 C2.71800166 2.61465559 5.04329768 5.26061676 7.234375 8.328125 C8.09482422 9.52695312 8.09482422 9.52695312 8.97265625 10.75 C9.55917969 11.575 10.14570312 12.4 10.75 13.25 C11.35199219 14.09046875 11.95398438 14.9309375 12.57421875 15.796875 C14.0528237 17.86222795 15.52795148 19.92997153 17 22 C16.34 22.33 15.68 22.66 15 23 C14.401875 22.030625 13.80375 21.06125 13.1875 20.0625 C11.28872491 16.76947958 11.28872491 16.76947958 8 16 C7.67 16.66 7.34 17.32 7 18 C5.82887054 15.37690901 4.66294036 12.75171858 3.5 10.125 C3.16613281 9.37863281 2.83226563 8.63226563 2.48828125 7.86328125 C2.17246094 7.14785156 1.85664062 6.43242187 1.53125 5.6953125 C1.23798828 5.03547363 0.94472656 4.37563477 0.64257812 3.69580078 C0 2 0 2 0 0 Z " fill="#DB9A5B" transform="translate(98,259)"/>
<path d="M0 0 C0 0.99 0 1.98 0 3 C0.31088368 4.67099977 0.64080332 6.33871537 1 8 C-1.65228812 9.07525194 -4.28368454 10.09456151 -7 11 C-7 11.99 -7 12.98 -7 14 C-8.53125 15.38671875 -8.53125 15.38671875 -10.5 16.6875 C-11.47453125 17.34298828 -11.47453125 17.34298828 -12.46875 18.01171875 C-13.22671875 18.50091797 -13.22671875 18.50091797 -14 19 C-14.66 18.67 -15.32 18.34 -16 18 C-15.02160156 16.93072266 -15.02160156 16.93072266 -14.0234375 15.83984375 C-9.26660294 10.62697048 -4.55366772 5.39250124 0 0 Z " fill="#C94955" transform="translate(744,464)"/>
<path d="M0 0 C0.33 1.32 0.66 2.64 1 4 C-0.34770354 5.65093683 -1.71259731 7.29106706 -3.1640625 8.8515625 C-6.6066532 12.88012609 -9.24197987 17.48761796 -12 22 C-12.66 21.01 -13.32 20.02 -14 19 C-9.38 12.73 -4.76 6.46 0 0 Z " fill="#BD4B5A" transform="translate(795,398)"/>
<path d="M0 0 C1.485 0.99 1.485 0.99 3 2 C3.4765625 4.75 3.4765625 4.75 3.625 8 C3.71682702 12.15400898 3.71682702 12.15400898 5 16 C5.0716735 18.55157655 5.09308442 21.07472971 5.0625 23.625 C5.05798828 24.33140625 5.05347656 25.0378125 5.04882812 25.765625 C5.03703875 27.51045275 5.01910324 29.255237 5 31 C4.34 31 3.68 31 3 31 C2.94465088 30.34515625 2.88930176 29.6903125 2.83227539 29.015625 C2.57731944 26.01027534 2.31992685 23.00513898 2.0625 20 C1.97548828 18.97003906 1.88847656 17.94007813 1.79882812 16.87890625 C1.31334981 11.23297326 0.74940134 5.61713439 0 0 Z " fill="#FDF1DB" transform="translate(416,244)"/>
<path d="M0 0 C0.66 0 1.32 0 2 0 C1.01886575 6.17537441 -0.15936569 12.05091373 -2.31640625 17.9296875 C-3.1951932 20.45066518 -3.1951932 20.45066518 -4 25 C0.62 25 5.24 25 10 25 C10 25.33 10 25.66 10 26 C4.72 26 -0.56 26 -6 26 C-5.37981039 22.79066929 -4.75402857 19.58259957 -4.125 16.375 C-3.95097656 15.47136719 -3.77695313 14.56773437 -3.59765625 13.63671875 C-2.67623333 8.96135062 -1.6538714 4.48482245 0 0 Z " fill="#DA9A5D" transform="translate(251,222)"/>
<path d="M0 0 C2.24076638 -0.00976582 4.48063752 -0.0408537 6.72119141 -0.07226562 C8.14696724 -0.07879091 9.57274958 -0.08404324 10.99853516 -0.08789062 C12.29162598 -0.09723633 13.5847168 -0.10658203 14.91699219 -0.11621094 C18.11572266 0.24023438 18.11572266 0.24023438 20.06054688 1.76074219 C20.40875488 2.24897461 20.75696289 2.73720703 21.11572266 3.24023438 C20.06255859 3.0778125 19.00939453 2.91539062 17.92431641 2.74804688 C12.02026306 2.01280063 6.11912885 2.0949467 0.17822266 2.11523438 C-0.95035156 2.11136719 -2.07892578 2.1075 -3.24169922 2.10351562 C-9.54071885 2.11084433 -15.64003304 2.40590269 -21.88427734 3.24023438 C-15.42327738 -1.06709894 -7.50105208 0.01983094 0 0 Z " fill="#FAE7CD" transform="translate(324.88427734375,158.759765625)"/>
<path d="M0 0 C-0.61538462 5.53846154 -0.61538462 5.53846154 -2.5625 7.875 C-3.2740625 8.431875 -3.2740625 8.431875 -4 9 C-4.66 8.67 -5.32 8.34 -6 8 C-8.01927511 8.60578253 -10.02253397 9.26919734 -12 10 C-11.06409496 8.8944811 -10.12620142 7.79064547 -9.1875 6.6875 C-8.66542969 6.07261719 -8.14335938 5.45773438 -7.60546875 4.82421875 C-7.07566406 4.22222656 -6.54585937 3.62023437 -6 3 C-5.50113281 2.42894531 -5.00226562 1.85789063 -4.48828125 1.26953125 C-3 0 -3 0 0 0 Z " fill="#E09653" transform="translate(617,244)"/>
<path d="M0 0 C0 4.04395357 -0.69927268 6.60875815 -3.515625 9.62109375 C-6.82123531 12.61770135 -9.37588771 14.71975077 -14 15 C-9.59156563 9.70987876 -4.92440206 4.81191572 0 0 Z " fill="#E29958" transform="translate(591,268)"/>
<path d="M0 0 C0.66 0 1.32 0 2 0 C1.73445312 1.12277344 1.46890625 2.24554688 1.1953125 3.40234375 C-0.58114608 10.92542756 -2.35217134 18.44745196 -4 26 C-4.33 26 -4.66 26 -5 26 C-6.00931371 16.66945547 -3.01327888 8.6739385 0 0 Z " fill="#FDEDD4" transform="translate(250,220)"/>
<path d="M0 0 C1.97956441 0.14033111 3.95865141 0.2874123 5.9375 0.4375 C7.03964844 0.51871094 8.14179688 0.59992188 9.27734375 0.68359375 C12 1 12 1 13 2 C15.24683187 2.53261552 17.50665479 2.96301616 19.7734375 3.40234375 C22 4 22 4 25 6 C16.31481952 5.59128562 8.30706251 3.38135792 0 1 C0 0.67 0 0.34 0 0 Z " fill="#FCE9D1" transform="translate(267,408)"/>
<path d="M0 0 C0 3 0 3 -1 5.1875 C-2.33807096 8.95082456 -2.13502498 12.016763 -2 16 C-4.0625 14.3125 -4.0625 14.3125 -6 12 C-6.13084789 7.15862818 -2.84766594 3.64627336 0 0 Z " fill="#CD4E4E" transform="translate(452,504)"/>
<path d="M0 0 C-0.33 0.66 -0.66 1.32 -1 2 C0.65 1.67 2.3 1.34 4 1 C4 1.99 4 2.98 4 4 C4.66 4 5.32 4 6 4 C6 4.66 6 5.32 6 6 C1.27934033 4.45730076 -3.41664092 2.92205381 -8 1 C-8 0.67 -8 0.34 -8 0 C-2.25 -1.125 -2.25 -1.125 0 0 Z " fill="#DF995B" transform="translate(288,251)"/>
<path d="M0 0 C0.66 0 1.32 0 2 0 C4.5466871 6.61396893 6.63125844 13.04223041 8 20 C7.34 20.33 6.68 20.66 6 21 C4 14 2 7 0 0 Z " fill="#D99556" transform="translate(321,285)"/>
<path d="M0 0 C4.49092377 2.37754788 7.52235713 5.3606063 11 9 C10.67 9.66 10.34 10.32 10 11 C8.68 10.67 7.36 10.34 6 10 C6 8.68 6 7.36 6 6 C5.01 6 4.02 6 3 6 C2.67 4.68 2.34 3.36 2 2 C1.34 2 0.68 2 0 2 C0 1.34 0 0.68 0 0 Z " fill="#DD9859" transform="translate(288,283)"/>
<path d="M0 0 C0.33 0.66 0.66 1.32 1 2 C-6.11389522 10.81548975 -6.11389522 10.81548975 -11 12 C-7.49102731 7.81576108 -3.91939465 3.80411834 0 0 Z " fill="#C54E5D" transform="translate(698,515)"/>
<path d="M0 0 C0.33 0 0.66 0 1 0 C1 3.63 1 7.26 1 11 C3.97 11.495 3.97 11.495 7 12 C7 12.33 7 12.66 7 13 C4.36 13 1.72 13 -1 13 C-1.07654536 8.48382401 -1.10228696 4.40914783 0 0 Z " fill="#FBEDD8" transform="translate(329,340)"/>
<path d="M0 0 C0.33 0 0.66 0 1 0 C1 4.29 1 8.58 1 13 C1.66 13 2.32 13 3 13 C3.33 15.64 3.66 18.28 4 21 C3.34 21 2.68 21 2 21 C0.13867327 16.29538677 -0.2509496 12.1242304 -0.125 7.125 C-0.11146484 6.09246094 -0.11146484 6.09246094 -0.09765625 5.0390625 C-0.07432513 3.35922162 -0.03846326 1.67956254 0 0 Z " fill="#D99656" transform="translate(226,306)"/>
<path d="M0 0 C0.33 1.32 0.66 2.64 1 4 C-0.43359375 6.140625 -0.43359375 6.140625 -2.4375 8.25 C-3.09621094 8.95640625 -3.75492188 9.6628125 -4.43359375 10.390625 C-5.20896484 11.18726563 -5.20896484 11.18726563 -6 12 C-6.66 11.67 -7.32 11.34 -8 11 C-5.36 7.37 -2.72 3.74 0 0 Z " fill="#BB6C79" transform="translate(795,398)"/>
<path d="M0 0 C0.66 0.33 1.32 0.66 2 1 C0.64529547 5.0641136 -1.37411034 5.83841193 -5 8 C-6.64619113 8.71573527 -8.30728055 9.4025696 -10 10 C-7.02911382 6.00073014 -3.87051275 3.07881696 0 0 Z " fill="#DE9856" transform="translate(542,314)"/>
<path d="M0 0 C1 2 1 2 0.25 4.875 C-0.88533421 7.71333554 -2.04083424 9.68462228 -4 12 C-4.66 11.67 -5.32 11.34 -6 11 C-5.25130208 9.27473958 -4.50260417 7.54947917 -3.75390625 5.82421875 C-3.10038058 4.24288979 -2.54108198 2.62324594 -2 1 C-1.34 0.67 -0.68 0.34 0 0 Z " fill="#F1E2CF" transform="translate(631,223)"/>
<path d="M0 0 C3.67033927 3.27708863 5.69281189 6.71522208 8 11 C7.01 11.66 6.02 12.32 5 13 C4.16209211 11.21046815 3.32980604 9.41830305 2.5 7.625 C1.80390625 6.12839844 1.80390625 6.12839844 1.09375 4.6015625 C0 2 0 2 0 0 Z " fill="#D69F6B" transform="translate(98,259)"/>
<path d="M0 0 C0 0.99 0 1.98 0 3 C-2.375 5.0625 -2.375 5.0625 -5 7 C-5.66 7.66 -6.32 8.32 -7 9 C-9.125 9.625 -9.125 9.625 -11 10 C-7.65996398 5.67760044 -4.67248931 2.82522609 0 0 Z " fill="#DE995C" transform="translate(245,280)"/>
<path d="M0 0 C3.09592835 3.5087188 4.74194623 6.49197399 6 11 C5.34 11 4.68 11 4 11 C2.375 8.5 2.375 8.5 1 6 C0.01 6.495 0.01 6.495 -1 7 C-0.67 4.69 -0.34 2.38 0 0 Z " fill="#E09655" transform="translate(403,210)"/>
<path d="M0 0 C0.99 0.33 1.98 0.66 3 1 C1.35 3.64 -0.3 6.28 -2 9 C-4 6 -4 6 -3.625 3.8125 C-3.41875 3.214375 -3.2125 2.61625 -3 2 C-2.67 2.66 -2.34 3.32 -2 4 C-1.34 4 -0.68 4 0 4 C0 2.68 0 1.36 0 0 Z " fill="#DF9450" transform="translate(509,408)"/>
<path d="M0 0 C0.8971875 0.309375 0.8971875 0.309375 1.8125 0.625 C0.02440303 1.79713045 -1.76809125 2.96255526 -3.5625 4.125 C-4.56023437 4.7746875 -5.55796875 5.424375 -6.5859375 6.09375 C-9.1875 7.625 -9.1875 7.625 -11.1875 7.625 C-11.1875 6.965 -11.1875 6.305 -11.1875 5.625 C-10.1975 5.625 -9.2075 5.625 -8.1875 5.625 C-8.1875 4.965 -8.1875 4.305 -8.1875 3.625 C-7.1975 3.625 -6.2075 3.625 -5.1875 3.625 C-5.1875 2.965 -5.1875 2.305 -5.1875 1.625 C-2.1875 -0.375 -2.1875 -0.375 0 0 Z " fill="#FEF1DC" transform="translate(478.1875,361.375)"/>
<path d="M0 0 C0.33 0.66 0.66 1.32 1 2 C0.06553465 4.03144641 -0.93224776 6.03533587 -2 8 C-2.66 8 -3.32 8 -4 8 C-4.28875 8.804375 -4.5775 9.60875 -4.875 10.4375 C-6 13 -6 13 -8 14 C-6.6744419 10.37723685 -5.05653045 7.36494652 -2.875 4.1875 C-2.33617187 3.39730469 -1.79734375 2.60710937 -1.2421875 1.79296875 C-0.83226562 1.20128906 -0.42234375 0.60960937 0 0 Z " fill="#FDEED7" transform="translate(572,316)"/>
<path d="M0 0 C0.66 0.33 1.32 0.66 2 1 C1.61479436 3.53910197 1.29902057 4.72751123 -0.62890625 6.484375 C-1.26699219 6.90203125 -1.90507813 7.3196875 -2.5625 7.75 C-3.20316406 8.17796875 -3.84382812 8.6059375 -4.50390625 9.046875 C-5.24447266 9.51867187 -5.24447266 9.51867187 -6 10 C-6.66 9.67 -7.32 9.34 -8 9 C-5.36 6.03 -2.72 3.06 0 0 Z " fill="#C74F5F" transform="translate(736,473)"/>
<path d="M0 0 C-0.99 0.33 -1.98 0.66 -3 1 C-3 1.66 -3 2.32 -3 3 C-6.63 3.33 -10.26 3.66 -14 4 C-11.58592302 2.39061535 -9.65955563 1.34509262 -7 0.3125 C-5.9790625 -0.09548828 -5.9790625 -0.09548828 -4.9375 -0.51171875 C-3 -1 -3 -1 0 0 Z " fill="#DE9C5E" transform="translate(408,400)"/>
<path d="M0 0 C0.33 0.99 0.66 1.98 1 3 C0.0409375 3.1546875 0.0409375 3.1546875 -0.9375 3.3125 C-1.618125 3.539375 -2.29875 3.76625 -3 4 C-3.33 4.99 -3.66 5.98 -4 7 C-5.65 7 -7.3 7 -9 7 C-6.24479785 4.04070881 -3.53372712 1.96318174 0 0 Z " fill="#DE9A59" transform="translate(483,359)"/>
<path d="M0 0 C0.33 0.66 0.66 1.32 1 2 C-0.21484375 4.6015625 -0.21484375 4.6015625 -1.9375 7.625 C-2.50339844 8.62789062 -3.06929687 9.63078125 -3.65234375 10.6640625 C-4.09707031 11.43492187 -4.54179688 12.20578125 -5 13 C-5.66 13 -6.32 13 -7 13 C-5.35821735 8.22390502 -2.73453298 4.20617096 0 0 Z " fill="#FCE0E5" transform="translate(673,599)"/>
<path d="M0 0 C0.33 0.66 0.66 1.32 1 2 C0.00390625 4.3828125 0.00390625 4.3828125 -1.4375 7.125 C-1.91058594 8.03507813 -2.38367188 8.94515625 -2.87109375 9.8828125 C-3.24363281 10.58148437 -3.61617188 11.28015625 -4 12 C-4.66 12 -5.32 12 -6 12 C-4.68139111 7.38486888 -2.78644563 3.90102388 0 0 Z " fill="#FDF0DA" transform="translate(437,528)"/>
<path d="M0 0 C0.33 1.32 0.66 2.64 1 4 C-1.31 5.98 -3.62 7.96 -6 10 C-6.66 9.67 -7.32 9.34 -8 9 C-7.50628906 8.51789063 -7.01257813 8.03578125 -6.50390625 7.5390625 C-5.86324219 6.90742188 -5.22257812 6.27578125 -4.5625 5.625 C-3.92441406 4.99851562 -3.28632813 4.37203125 -2.62890625 3.7265625 C-0.92117824 2.08276939 -0.92117824 2.08276939 0 0 Z " fill="#FEEED7" transform="translate(402,330)"/>
<path d="M0 0 C0 3 0 3 -1.53125 4.60546875 C-2.1809375 5.12753906 -2.830625 5.64960938 -3.5 6.1875 C-4.1496875 6.71730469 -4.799375 7.24710937 -5.46875 7.79296875 C-5.9740625 8.19128906 -6.479375 8.58960938 -7 9 C-7.66 8.67 -8.32 8.34 -9 8 C-6.03 5.36 -3.06 2.72 0 0 Z " fill="#DC9553" transform="translate(553,305)"/>
<path d="M0 0 C0.99 0 1.98 0 3 0 C3 0.99 3 1.98 3 3 C3.66 3 4.32 3 5 3 C5 5.31 5 7.62 5 10 C2.35534962 6.8745041 1.15585285 3.91211733 0 0 Z " fill="#C64756" transform="translate(512,631)"/>
<path d="M0 0 C0 0.99 0 1.98 0 3 C-1.45264038 3.8638129 -2.9123163 4.71580454 -4.375 5.5625 C-5.59316406 6.27599609 -5.59316406 6.27599609 -6.8359375 7.00390625 C-7.55007813 7.33261719 -8.26421875 7.66132813 -9 8 C-9.66 7.67 -10.32 7.34 -11 7 C-7.37 4.69 -3.74 2.38 0 0 Z " fill="#C24F5B" transform="translate(549,428)"/>
<path d="M0 0 C0.33 0.66 0.66 1.32 1 2 C1.66 2.33 2.32 2.66 3 3 C0.42215154 5.64752004 -1.91648098 7.94432065 -5 10 C-3.66511872 6.40608886 -2.03977277 3.24509304 0 0 Z " fill="#FDE7E9" transform="translate(704,548)"/>
<path d="M0 0 C0 3.97054597 -1.3139381 5.16471244 -4 8 C-6.140625 8.6484375 -6.140625 8.6484375 -8 9 C-7.04270084 7.87411986 -6.08412105 6.7493285 -5.125 5.625 C-4.59132813 4.99851562 -4.05765625 4.37203125 -3.5078125 3.7265625 C-2.38567993 2.44163349 -1.20628025 1.20628025 0 0 Z " fill="#DC9E66" transform="translate(591,268)"/>
<path d="M0 0 C0.66 1.32 1.32 2.64 2 4 C0.35 5.65 -1.3 7.3 -3 9 C-3.66 8.67 -4.32 8.34 -5 8 C-3.35 5.36 -1.7 2.72 0 0 Z " fill="#DD9756" transform="translate(266,191)"/>
<path d="M0 0 C0.33 0 0.66 0 1 0 C1.25 2.25 1.25 2.25 1 5 C-1 7.3125 -1 7.3125 -3 9 C-3.66 8.67 -4.32 8.34 -5 8 C-4.19185349 6.66402348 -3.37836819 5.331275 -2.5625 4 C-2.11003906 3.2575 -1.65757812 2.515 -1.19140625 1.75 C-0.79824219 1.1725 -0.40507812 0.595 0 0 Z " fill="#FDF0DA" transform="translate(482,455)"/>
<path d="M0 0 C0.66 0.33 1.32 0.66 2 1 C-0.00979059 4.01468588 -0.70736015 4.83789182 -4 6 C-6.1328125 5.546875 -6.1328125 5.546875 -8 5 C-6.71475739 4.13619741 -5.42157581 3.28419631 -4.125 2.4375 C-3.04605469 1.72400391 -3.04605469 1.72400391 -1.9453125 0.99609375 C-1.30335938 0.66738281 -0.66140625 0.33867187 0 0 Z " fill="#DF9A5B" transform="translate(291,167)"/>
<path d="M0 0 C3.37503669 1.1858237 5.64722731 2.27573689 8 5 C5.36 4.67 2.72 4.34 0 4 C0 2.68 0 1.36 0 0 Z " fill="#C54B5A" transform="translate(506,554)"/>
<path d="M0 0 C0.6875 1.6875 0.6875 1.6875 1 4 C-0.3125 6.75 -0.3125 6.75 -2 9 C-2.66 9 -3.32 9 -4 9 C-2.94124926 5.59687262 -1.99097846 2.98646769 0 0 Z " fill="#FEF3DD" transform="translate(426,547)"/>
<path d="M0 0 C0.8125 1.625 0.8125 1.625 1 4 C-0.46818136 6.24609835 -2.15852858 8.02378677 -4 10 C-4 5.75354935 -2.18249194 3.61475228 0 0 Z " fill="#FDF0D8" transform="translate(476,464)"/>
<path d="M0 0 C2.64 0 5.28 0 8 0 C5.09907498 1.93395001 4.10325263 2.30131941 0.8125 2.625 C-0.445625 2.74875 -1.70375 2.8725 -3 3 C-2.01 2.67 -1.02 2.34 0 2 C0 1.34 0 0.68 0 0 Z " fill="#DE9B5D" transform="translate(368,349)"/>
<path d="M0 0 C0.66 0.99 1.32 1.98 2 3 C-0.97 5.475 -0.97 5.475 -4 8 C-4.66 7.67 -5.32 7.34 -6 7 C-4.02 4.69 -2.04 2.38 0 0 Z " fill="#FDEED8" transform="translate(303,341)"/>
<path d="M0 0 C0 3.10551666 -0.5393715 4.35261084 -2 7 C-3.32 6.67 -4.64 6.34 -6 6 C-4.02 4.02 -2.04 2.04 0 0 Z " fill="#DE995C" transform="translate(598,261)"/>
<path d="M0 0 C0.99 0.33 1.98 0.66 3 1 C3 1.66 3 2.32 3 3 C2.01 3.66 1.02 4.32 0 5 C-0.33 5.99 -0.66 6.98 -1 8 C-1.66 8 -2.32 8 -3 8 C-2.690625 7.236875 -2.38125 6.47375 -2.0625 5.6875 C-1.32106407 3.81210323 -0.63771783 1.91315348 0 0 Z " fill="#FCE5D2" transform="translate(444,515)"/>
<path d="M0 0 C1.32 0.33 2.64 0.66 4 1 C3.34 2.65 2.68 4.3 2 6 C0 3 0 3 0 0 Z M-2 3 C-1.34 3 -0.68 3 0 3 C-0.33 3.66 -0.66 4.32 -1 5 C-1.33 4.34 -1.66 3.68 -2 3 Z " fill="#E29652" transform="translate(562,324)"/>
<path d="M0 0 C0.33 0.99 0.66 1.98 1 3 C-0.8125 6.1875 -0.8125 6.1875 -3 9 C-3.66 9 -4.32 9 -5 9 C-3.7508258 5.54074837 -2.32472205 2.85306797 0 0 Z " fill="#FEF0D7" transform="translate(606,264)"/>
<path d="M0 0 C1.32 0 2.64 0 4 0 C4.33 2.31 4.66 4.62 5 7 C3.29115995 5.37660195 1.62553283 3.70680947 0 2 C0 1.34 0 0.68 0 0 Z " fill="#FEF2DF" transform="translate(390,188)"/>
</svg>
